<svg xmlns="http://www.w3.org/2000/svg" width="55.715" height="60" viewBox="0 0 55.715 60">
  <g id="Choose_The_Correct_College" data-name="Choose The Correct College" transform="translate(-15)">
    <g id="Group_465" data-name="Group 465" transform="translate(41.714 0)">
      <g id="Group_464" data-name="Group 464" transform="translate(0 0)">
        <path id="Path_3117" data-name="Path 3117" d="M213.074,6.447l-1.758-2.308,1.758-2.308A1.14,1.14,0,0,0,212.165,0h-9A1.158,1.158,0,0,0,202,1.139V11.286h2.286v-3h7.879a1.145,1.145,0,0,0,.909-1.839Z" transform="translate(-202 0)" fill="#221fb7"/>
      </g>
    </g>
    <g id="Group_467" data-name="Group 467" transform="translate(15 36)">
      <g id="Group_466" data-name="Group 466" transform="translate(0)">
        <path id="Path_3118" data-name="Path 3118" d="M16.695,252A1.686,1.686,0,0,0,15,253.677V276H29.429V252Zm3.734,17.714a1.143,1.143,0,0,1-2.286,0v-2.456a1.143,1.143,0,0,1,2.286,0Zm0-9.565a1.143,1.143,0,0,1-2.286,0v-2.456a1.143,1.143,0,0,1,2.286,0Zm5.857,9.565a1.143,1.143,0,0,1-2.286,0v-2.456a1.143,1.143,0,0,1,2.286,0Zm0-9.565a1.143,1.143,0,0,1-2.286,0v-2.456a1.143,1.143,0,0,1,2.286,0Z" transform="translate(-15 -252)" fill="#221fb7"/>
      </g>
    </g>
    <g id="Group_469" data-name="Group 469" transform="translate(31.714 20.071)">
      <g id="Group_468" data-name="Group 468" transform="translate(0)">
        <path id="Path_3119" data-name="Path 3119" d="M142.959,140.5,132,149.822v30.607h5v-11.9a1.072,1.072,0,0,1,1.044-1.1h9.882A1.049,1.049,0,0,1,149,168.451c0,.025,0,.051,0,.076v11.9h4.857V149.811Zm4.966,20.5h-9.889a1.143,1.143,0,1,1,0-2.286h9.889a1.143,1.143,0,0,1,0,2.286Z" transform="translate(-132 -140.5)" fill="#221fb7"/>
      </g>
    </g>
    <g id="Group_471" data-name="Group 471" transform="translate(55.857 36)">
      <g id="Group_470" data-name="Group 470">
        <path id="Path_3120" data-name="Path 3120" d="M314.185,252H301v24h14.857V253.7A1.686,1.686,0,0,0,314.185,252Zm-7.328,17.714a1.143,1.143,0,1,1-2.286,0v-2.456a1.143,1.143,0,0,1,2.286,0Zm0-9.565a1.143,1.143,0,1,1-2.286,0v-2.456a1.143,1.143,0,0,1,2.286,0Zm5.714,9.565a1.143,1.143,0,0,1-2.286,0v-2.456a1.143,1.143,0,0,1,2.286,0Zm0-9.565a1.143,1.143,0,0,1-2.286,0v-2.456a1.143,1.143,0,0,1,2.286,0Z" transform="translate(-301 -252)" fill="#221fb7"/>
      </g>
    </g>
    <g id="Group_473" data-name="Group 473" transform="translate(26.374 12.834)">
      <g id="Group_472" data-name="Group 472" transform="translate(0)">
        <path id="Path_3121" data-name="Path 3121" d="M110.972,89.836l-16.355,14,2.067,2.4L110.23,94.7a1.143,1.143,0,0,1,1.484,0l13.49,11.545,2.114-2.416Z" transform="translate(-94.617 -89.836)" fill="#221fb7"/>
      </g>
    </g>
    <g id="Group_475" data-name="Group 475" transform="translate(39 49.286)">
      <g id="Group_474" data-name="Group 474" transform="translate(0)">
        <rect id="Rectangle_292" data-name="Rectangle 292" width="7.429" height="10.714" fill="#221fb7"/>
      </g>
    </g>
  </g>
</svg>
