<svg xmlns="http://www.w3.org/2000/svg" width="54.126" height="60" viewBox="0 0 54.126 60">
  <g id="Choose_The_Correct_Country" data-name="Choose The Correct Country" transform="translate(-44 -21)">
    <path id="Path_3122" data-name="Path 3122" d="M170.849,43.084a1.923,1.923,0,1,0-1.921-1.923A1.923,1.923,0,0,0,170.849,43.084Z" transform="translate(-108.98 -15.91)" fill="#221fb7"/>
    <path id="Path_3123" data-name="Path 3123" d="M156.093,32.552l3.35-4.481a4.441,4.441,0,0,0,.911-2.95,4.263,4.263,0,0,0-8.521,0,4.554,4.554,0,0,0,.915,2.958Zm-.161-10.5a3.2,3.2,0,1,1-3.2,3.2A3.2,3.2,0,0,1,155.932,22.052Z" transform="translate(-94.063)" fill="#221fb7"/>
    <path id="Path_3124" data-name="Path 3124" d="M357.342,116.514a2.247,2.247,0,0,0,1.418.752l.373.046a3.285,3.285,0,0,1,2.74,2.308,3.218,3.218,0,0,1-.946,3.335l-3.695,3.267a2.127,2.127,0,0,0-.718,1.593v.867a1.663,1.663,0,0,0,.763,1.4,3.087,3.087,0,0,1,1.4,2.3l.087.866a1.427,1.427,0,0,0,1.424,1.291h2.163a3.208,3.208,0,0,0,2.937-1.92l.13-.3a3.1,3.1,0,0,1,2.714-1.864l.508-.023c.057,0,.113-.007.17-.013l1.233-.124a41.786,41.786,0,0,0-1.373-7.115l-.724.969a.638.638,0,0,1-1.022,0l-3.1-4.15a4.816,4.816,0,0,1-.959-3.137,4.745,4.745,0,0,1,.672-2.148,28.747,28.747,0,0,0-4.278-3.469l-2.091,3.585a1.462,1.462,0,0,0,.172,1.682Z" transform="translate(-272.62 -78.726)" fill="#221fb7"/>
    <path id="Path_3125" data-name="Path 3125" d="M419.516,139.842l2.593-3.467a3.443,3.443,0,0,0,.707-2.287,3.3,3.3,0,0,0-6.6,0,3.535,3.535,0,0,0,.712,2.3Zm-.129-8.355a2.7,2.7,0,1,1-2.7,2.7,2.7,2.7,0,0,1,2.7-2.7Z" transform="translate(-324.695 -95.863)" fill="#221fb7"/>
    <path id="Path_3126" data-name="Path 3126" d="M96.323,96.465q-.12.012-.24.017l-.508.023a1.831,1.831,0,0,0-1.6,1.1l-.13.3a4.485,4.485,0,0,1-4.106,2.684H87.574a2.7,2.7,0,0,1-2.694-2.44l-.086-.866a1.817,1.817,0,0,0-.826-1.353,2.934,2.934,0,0,1-1.347-2.475v-.867a3.4,3.4,0,0,1,1.148-2.549l3.7-3.268a1.938,1.938,0,0,0,.569-2.009,2.008,2.008,0,0,0-1.675-1.411l-.373-.046a3.521,3.521,0,0,1-2.224-1.179,2.741,2.741,0,0,1-.317-3.16l2.12-3.634a32.251,32.251,0,0,0-3.528-1.872,27.657,27.657,0,0,0-11.247-2.6c-.343,0-.718.011-1.115.032l2.835,4.089a4.463,4.463,0,0,1-.133,5.282l-.909,1.18a3.494,3.494,0,0,1-3.2,1.33l-1.031-.132a2.332,2.332,0,0,0-2.308,1.134,3.507,3.507,0,0,1-3.47,1.705l-2.38-.3a2.464,2.464,0,0,0-2.362,1.069,2.031,2.031,0,0,0-.034,2.224l1.572,2.485a1.794,1.794,0,0,0,2.355.62l1.619-.868a5.266,5.266,0,0,1,3.89-.222,5.529,5.529,0,0,1,10.977.708,5.713,5.713,0,0,1-1.163,3.8l-1,1.336.586.8q.129.18.268.343l1.966,2.315a2.4,2.4,0,0,1-.367,3.462l-2.98,2.291a3.4,3.4,0,0,0-1.182,1.7l-.993,3.224a3.4,3.4,0,0,1-.638,1.179l-.966,1.163a4.26,4.26,0,0,0-.963,2.291,2.928,2.928,0,0,1-1.779,2.4,2.164,2.164,0,0,1-2.971-1.641l-.91-5.466a2.837,2.837,0,0,0-.54-1.249l-3.334-4.376a5.261,5.261,0,0,1-.889-1.792l-1.1-3.974A2.781,2.781,0,0,0,56.2,97.075l-.239-.065a4.484,4.484,0,0,1-1.887-1.058l-2.053-1.934a6.042,6.042,0,0,1-1.084-1.368,3.165,3.165,0,0,0-3.315-1.525l-2.992.973A26.772,26.772,0,1,0,97.579,97.68c0-.416-.016-.865-.045-1.337Z" transform="translate(0 -43.497)" fill="#221fb7"/>
    <path id="Path_3127" data-name="Path 3127" d="M431.379,148.392a1.42,1.42,0,1,0-1.42-1.42A1.42,1.42,0,0,0,431.379,148.392Z" transform="translate(-336.688 -108.652)" fill="#221fb7"/>
    <path id="Path_3128" data-name="Path 3128" d="M73.513,124.5a1.923,1.923,0,1,0-1.921-1.922A1.923,1.923,0,0,0,73.513,124.5Z" transform="translate(-24.07 -86.932)" fill="#221fb7"/>
    <path id="Path_3129" data-name="Path 3129" d="M54.087,90.872A4.443,4.443,0,0,1,58.79,93a4.765,4.765,0,0,0,.855,1.079L61.7,96.014a3.2,3.2,0,0,0,1.348.756l.239.065a4.063,4.063,0,0,1,2.833,2.824l1.1,3.974a3.99,3.99,0,0,0,.674,1.359l3.335,4.376a4.116,4.116,0,0,1,.784,1.813l.91,5.466a.887.887,0,0,0,1.218.674,1.652,1.652,0,0,0,1-1.354,5.532,5.532,0,0,1,1.251-2.976l.966-1.163a2.135,2.135,0,0,0,.4-.739l.993-3.224a4.665,4.665,0,0,1,1.624-2.338l2.98-2.29a1.128,1.128,0,0,0,.172-1.624L81.562,99.3c-.115-.136-.226-.278-.329-.422l-.351-.482-2.062,2.757a.638.638,0,0,1-1.022,0l-3.861-5.164a5.959,5.959,0,0,1-1.165-3.177,4.022,4.022,0,0,0-3.193.019L67.96,93.7a3.036,3.036,0,0,1-1.438.361,3.074,3.074,0,0,1-2.6-1.424l-1.572-2.485a3.307,3.307,0,0,1,.056-3.622,3.733,3.733,0,0,1,3.58-1.619l2.38.3a2.233,2.233,0,0,0,2.209-1.085,3.607,3.607,0,0,1,3.571-1.753l1.031.132A2.212,2.212,0,0,0,77.2,81.66l.909-1.18a3.191,3.191,0,0,0,.1-3.776L74.946,72c-.363.036-.731.078-1.1.126a6,6,0,0,1-.7,1.2l-3.86,5.163a.638.638,0,0,1-1.022,0l-2.842-3.8a35.884,35.884,0,0,0-4.273,2.767,5.673,5.673,0,0,1-.428,6.265l-3.861,5.163a.638.638,0,0,1-1.022,0l-2.047-2.738a30.077,30.077,0,0,0-2.059,5.488l2.281-.742a.64.64,0,0,1,.074-.019Z" transform="translate(-6.746 -44.489)" fill="#221fb7"/>
    <path id="Path_3130" data-name="Path 3130" d="M234.112,205.585a4.441,4.441,0,0,0,.911-2.95,4.263,4.263,0,0,0-8.52,0,4.554,4.554,0,0,0,.915,2.958l3.345,4.474Zm-6.708-2.82a3.2,3.2,0,1,1,3.2,3.2A3.2,3.2,0,0,1,227.4,202.765Z" transform="translate(-159.199 -154.853)" fill="#221fb7"/>
    <ellipse id="Ellipse_43" data-name="Ellipse 43" cx="1.921" cy="1.923" rx="1.921" ry="1.923" transform="translate(69.48 45.99)" fill="#221fb7"/>
    <path id="Path_3131" data-name="Path 3131" d="M58.755,113.964l3.35-4.481a4.441,4.441,0,0,0,.911-2.95,4.263,4.263,0,0,0-8.52,0,4.554,4.554,0,0,0,.915,2.958Zm-.161-10.5a3.2,3.2,0,1,1-3.2,3.2,3.2,3.2,0,0,1,3.2-3.2Z" transform="translate(-9.151 -71.019)" fill="#221fb7"/>
  </g>
</svg>
