<svg xmlns="http://www.w3.org/2000/svg" width="60" height="60" viewBox="0 0 60 60">
  <g id="Choose_The_Correct_Course" data-name="Choose The Correct Course" transform="translate(0 0.001)">
    <path id="Path_3132" data-name="Path 3132" d="M193.721,146.269,182,142.132v7.953a1.758,1.758,0,0,0,1.758,1.758H207.2a1.758,1.758,0,0,0,1.758-1.758v-7.953l-11.721,4.137a5.273,5.273,0,0,1-3.511,0Z" transform="translate(-160.672 -125.477)" fill="#221fb7"/>
    <path id="Path_3133" data-name="Path 3133" d="M113.173,10.446l19.922,7.031a1.758,1.758,0,0,0,1.17,0l17.579-6.2v6.891a1.758,1.758,0,0,0,3.516,0V8.788a1.758,1.758,0,0,0-1.173-1.658L134.265.1a1.756,1.756,0,0,0-1.17,0L113.173,7.131a1.758,1.758,0,0,0,0,3.315Z" transform="translate(-98.875)" fill="#221fb7"/>
    <path id="Path_3134" data-name="Path 3134" d="M152.4,290.854l-6.649,8.695a7.032,7.032,0,0,1-5.585,2.76H127.82a1.758,1.758,0,0,1,0-3.516h10.7a4.166,4.166,0,0,0,4.182-4.182,4.1,4.1,0,0,0-4.1-4.022H126.3a10.18,10.18,0,0,0-12.973-.946L112,290.59v19.922h30.57a10.547,10.547,0,0,0,8.872-4.844L158.3,295a3.608,3.608,0,0,0-5.9-4.143Z" transform="translate(-98.875 -254.028)" fill="#221fb7"/>
    <path id="Path_3135" data-name="Path 3135" d="M7.852,282H1.758A1.758,1.758,0,0,0,0,283.758V307.2a1.758,1.758,0,0,0,1.758,1.758H7.852A1.758,1.758,0,0,0,9.609,307.2V283.758A1.758,1.758,0,0,0,7.852,282Z" transform="translate(0 -248.954)" fill="#221fb7"/>
  </g>
</svg>
