<svg xmlns="http://www.w3.org/2000/svg" width="59.99" height="60" viewBox="0 0 59.99 60">
  <g id="Go_Abroad_Via_IOA_Global" data-name="Go Abroad Via IOA Global" transform="translate(-0.004)">
    <g id="Group_476" data-name="Group 476" transform="translate(0.004)">
      <path id="Path_3136" data-name="Path 3136" d="M42.064,10.425l-.9.285-4.78.426-1.35,2.156-.98-.311-3.8-3.43L29.7,7.767l-.739-1.9L26.57,3.72l-2.821-.552-.065,1.291,2.764,2.7L27.8,8.749l-1.52.795-1.238-.365L23.187,8.4l.063-1.5-2.433-1-.808,3.516-2.452.556.243,1.961,3.2.615.552-3.134,2.638.39,1.226.718h1.967l1.346,2.7,3.57,3.621-.262,1.408-2.878-.367L24.18,20.4,20.6,24.7l-.466,1.9H18.848l-2.395-1.1-2.326,1.1.579,2.454,1.012-1.167,1.78-.055-.124,2.2,1.474.432,1.472,1.654,2.4-.676,2.746.434,3.189.858,1.593.187,2.7,3.065,5.212,3.065L34.8,45.492l-3.558,1.654-1.35,3.68-5.149,3.438-.548,1.982A29.96,29.96,0,0,0,42.064,10.425Z" transform="translate(12.846 2.882)" fill="#221fb7"/>
      <path id="Path_3137" data-name="Path 3137" d="M33.447,38.825l-2.185-4.051L33.268,30.6,31.263,30l-2.252-2.261-4.989-1.119-1.656-3.464v2.057h-.73l-4.3-5.829V14.591L14.187,9.467l-5,.892H5.812l-1.7-1.112L6.28,7.532l-2.158.5A29.959,29.959,0,0,0,30,53.147a31.406,31.406,0,0,0,3.764-.262l-.313-3.634s1.377-5.4,1.377-5.581S33.447,38.825,33.447,38.825Z" transform="translate(-0.004 6.853)" fill="#221fb7"/>
      <path id="Path_3138" data-name="Path 3138" d="M7.882,9.673,13.21,8.93l2.456-1.346,2.764.8,4.416-.244,1.513-2.378,2.206.363,5.357-.5L33.4,3.992,35.479,2.6l2.945.443L39.5,2.882A29.9,29.9,0,0,0,3.6,10.907h.015ZM28,2.983,31.06,1.3l1.967,1.136L30.179,4.6l-2.72.273-1.224-.794Zm-9.074.246,1.352.563,1.77-.563L23.01,4.9,18.923,5.974l-1.965-1.15S18.879,3.587,18.923,3.23Z" transform="translate(3.264)" fill="#221fb7"/>
    </g>
  </g>
</svg>
